<?xml version="1.0" encoding="UTF-8" standalone="no"?>
<svg
   xmlns:dc="http://purl.org/dc/elements/1.1/"
   xmlns:cc="http://creativecommons.org/ns#"
   xmlns:rdf="http://www.w3.org/1999/02/22-rdf-syntax-ns#"
   xmlns:svg="http://www.w3.org/2000/svg"
   xmlns="http://www.w3.org/2000/svg"
   xmlns:sodipodi="http://sodipodi.sourceforge.net/DTD/sodipodi-0.dtd"
   xmlns:inkscape="http://www.inkscape.org/namespaces/inkscape"
   width="48"
   height="48"
   viewBox="0 0 48 48"
   id="svg2"
   version="1.1"
   inkscape:version="0.48.5 r10040"
   sodipodi:docname="ic_bind_tag.svg">
  <metadata
     id="metadata10">
    <rdf:RDF>
      <cc:Work
         rdf:about="">
        <dc:format>image/svg+xml</dc:format>
        <dc:type
           rdf:resource="http://purl.org/dc/dcmitype/StillImage" />
        <dc:title />
      </cc:Work>
    </rdf:RDF>
  </metadata>
  <defs
     id="defs8" />
  <sodipodi:namedview
     pagecolor="#ffffff"
     bordercolor="#666666"
     borderopacity="1"
     objecttolerance="10"
     gridtolerance="10"
     guidetolerance="10"
     inkscape:pageopacity="0"
     inkscape:pageshadow="2"
     inkscape:window-width="996"
     inkscape:window-height="744"
     id="namedview6"
     showgrid="false"
     showguides="true"
     inkscape:guide-bbox="true"
     inkscape:snap-bbox="true"
     inkscape:snap-bbox-midpoints="true"
     inkscape:zoom="6.0050508"
     inkscape:cx="26.701885"
     inkscape:cy="23.677639"
     inkscape:window-x="385"
     inkscape:window-y="48"
     inkscape:window-maximized="0"
     inkscape:current-layer="g3002">
    <sodipodi:guide
       orientation="1,0"
       position="24,24"
       id="guide2994" />
    <sodipodi:guide
       orientation="0,1"
       position="24,24"
       id="guide2996" />
  </sodipodi:namedview>
  <g
     id="g3002"
     transform="matrix(0.70710678,0.70710678,-0.70710678,0.70710678,23.996512,-4.9922619)">
    <path
       d="M 24 2.3125 C 22.976463 2.3125 21.937603 2.718647 21.15625 3.5 L 11.28125 13.40625 C 10.496361 14.191139 10.086679 15.193445 10.09375 16.21875 L 10.09375 41.6875 C 10.09375 42.705734 10.503433 43.722183 11.28125 44.5 C 12.059067 45.277817 13.075516 45.6875 14.09375 45.6875 L 33.90625 45.6875 C 34.931555 45.680429 35.940933 45.277817 36.71875 44.5 C 37.503639 43.715111 37.90625 42.688626 37.90625 41.65625 L 37.90625 16.21875 C 37.899179 15.193445 37.496567 14.184067 36.71875 13.40625 L 26.8125 3.5 C 26.031147 2.718647 25.023537 2.3125 24 2.3125 z M 24 7.5625 C 24.767211 7.5625 25.538101 7.8506014 26.125 8.4375 C 27.298797 9.6112973 27.298797 11.513703 26.125 12.6875 C 24.951203 13.861297 23.048797 13.861297 21.875 12.6875 C 20.701203 11.513703 20.701203 9.6112973 21.875 8.4375 C 22.461899 7.8506014 23.232789 7.5625 24 7.5625 z M 19 23.9375 L 23 23.9375 L 23 25.84375 L 19 25.84375 C 17.29 25.843749 15.90625 27.227499 15.90625 28.9375 C 15.90625 30.647499 17.29 32.062501 19 32.0625 L 23 32.0625 L 23 33.9375 L 19 33.9375 C 16.24 33.9375 14 31.697499 14 28.9375 C 14 26.1775 16.24 23.9375 19 23.9375 z M 25 23.9375 L 29 23.9375 C 31.76 23.9375 34 26.1775 34 28.9375 C 34 31.697499 31.76 33.9375 29 33.9375 L 25 33.9375 L 25 32.0625 L 29 32.0625 C 30.71 32.062501 32.09375 30.647501 32.09375 28.9375 C 32.09375 27.227499 30.71 25.843749 29 25.84375 L 25 25.84375 L 25 23.9375 z M 20 27.9375 L 28 27.9375 L 28 29.9375 L 20 29.9375 L 20 27.9375 z "
       transform="matrix(0.70710678,-0.70710678,0.70710678,0.70710678,-13.438034,20.498159)"
       id="path4" />
  </g>
</svg>
